<?xml version="1.0" encoding="UTF-8" standalone="no"?>
<svg
   xmlns:dc="http://purl.org/dc/elements/1.1/"
   xmlns:cc="http://creativecommons.org/ns#"
   xmlns:rdf="http://www.w3.org/1999/02/22-rdf-syntax-ns#"
   xmlns:svg="http://www.w3.org/2000/svg"
   xmlns="http://www.w3.org/2000/svg"
   viewBox="0 0 200 200"
   height="200"
   width="200"
   xml:space="preserve"
   id="svg2"
   version="1.1"><metadata
     id="metadata8"><rdf:RDF><cc:Work
         rdf:about=""><dc:format>image/svg+xml</dc:format><dc:type
           rdf:resource="http://purl.org/dc/dcmitype/StillImage" /></cc:Work></rdf:RDF></metadata><defs
     id="defs6"><clipPath
       id="clipPath18"
       clipPathUnits="userSpaceOnUse"><path
         id="path16"
         d="M 0,150 H 150 V 0 H 0 Z" /></clipPath></defs><g
     transform="matrix(1.3333333,0,0,-1.3333333,0,200)"
     id="g10"><g
       id="g12"><g
         clip-path="url(#clipPath18)"
         id="g14"><g
           transform="translate(106.8732,123.3478)"
           id="g20"><path
             id="path22"
             style="fill:#000000;fill-opacity:1;fill-rule:nonzero;stroke:none"
             d="M 0,0 C 0,2.186 -1.772,3.958 -3.958,3.958 H -67.29 c -2.187,0 -3.959,-1.772 -3.959,-3.958 v -1.583 c 0,-2.186 1.772,-3.958 3.959,-3.958 h 63.332 c 2.186,0 3.958,1.772 3.958,3.958 z" /></g><g
           transform="translate(60.1656,108.5707)"
           id="g24"><path
             id="path26"
             style="fill:#000000;fill-opacity:1;fill-rule:nonzero;stroke:none"
             d="m 0,0 h -22.166 c -1.312,0 -2.375,-1.063 -2.375,-2.375 0,-1.312 1.063,-2.375 2.375,-2.375 H 0 c 1.312,0 2.375,1.063 2.375,2.375 C 2.375,-1.063 1.312,0 0,0" /></g><g
           transform="translate(60.1656,99.071)"
           id="g28"><path
             id="path30"
             style="fill:#000000;fill-opacity:1;fill-rule:nonzero;stroke:none"
             d="m 0,0 h -22.166 c -1.312,0 -2.375,-1.063 -2.375,-2.375 0,-1.312 1.063,-2.375 2.375,-2.375 H 0 c 1.312,0 2.375,1.063 2.375,2.375 C 2.375,-1.063 1.312,0 0,0" /></g><g
           transform="translate(60.1656,89.5713)"
           id="g32"><path
             id="path34"
             style="fill:#000000;fill-opacity:1;fill-rule:nonzero;stroke:none"
             d="m 0,0 h -22.166 c -1.312,0 -2.375,-1.063 -2.375,-2.375 0,-1.312 1.063,-2.375 2.375,-2.375 H 0 c 1.312,0 2.375,1.063 2.375,2.375 C 2.375,-1.063 1.312,0 0,0" /></g><g
           transform="translate(60.1656,80.0716)"
           id="g36"><path
             id="path38"
             style="fill:#000000;fill-opacity:1;fill-rule:nonzero;stroke:none"
             d="m 0,0 h -22.166 c -1.312,0 -2.375,-1.063 -2.375,-2.375 0,-1.312 1.063,-2.375 2.375,-2.375 H 0 c 1.312,0 2.375,1.063 2.375,2.375 C 2.375,-1.063 1.312,0 0,0" /></g><g
           transform="translate(60.1656,70.5719)"
           id="g40"><path
             id="path42"
             style="fill:#000000;fill-opacity:1;fill-rule:nonzero;stroke:none"
             d="m 0,0 h -22.166 c -1.312,0 -2.375,-1.063 -2.375,-2.375 0,-1.312 1.063,-2.375 2.375,-2.375 H 0 c 1.312,0 2.375,1.063 2.375,2.375 C 2.375,-1.063 1.312,0 0,0" /></g><g
           transform="translate(53.5685,50.2531)"
           id="g44"><path
             id="path46"
             style="fill:#000000;fill-opacity:1;fill-rule:nonzero;stroke:none"
             d="m 0,0 h -44.069 v 68.081 h 6.334 V 8.703 c 0,-2.187 1.772,-3.959 3.958,-3.959 h 1.583 c 2.186,0 3.958,1.772 3.958,3.959 V 90.247 H 63.596 V 35.704 c 1.259,-1.976 1.998,-4.316 1.998,-6.833 v -15.19 h 7.379 c 0.041,0 0.081,-0.005 0.123,-0.006 v 80.531 1.582 c 0,2.187 -1.772,3.959 -3.959,3.959 h -1.582 -99.749 -1.583 c -2.186,0 -3.958,-1.772 -3.958,-3.959 V 94.206 77.581 h -10.292 -1.583 c -2.186,0 -3.959,-1.772 -3.959,-3.959 V 72.04 -3.958 -5.541 c 0,-2.186 1.773,-3.959 3.959,-3.959 h 1.583 L 0,-9.5 Z" /></g><g
           transform="translate(77.3184,82.4715)"
           id="g48"><path
             id="path50"
             style="fill:#000000;fill-opacity:1;fill-rule:nonzero;stroke:none"
             d="M 0,0 H 1.203 C 2.675,5.417 7.614,9.406 13.497,9.406 H 29.09 c 0.157,0 0.309,-0.018 0.465,-0.023 v 15.133 c 0,2.186 -1.772,3.958 -3.959,3.958 L 0,28.474 c -2.186,0 -3.958,-1.772 -3.958,-3.958 V 3.958 C -3.958,1.772 -2.186,0 0,0" /></g><g
           transform="translate(96.0117,73.7859)"
           id="g52"><path
             id="path54"
             style="fill:#000000;fill-opacity:1;fill-rule:nonzero;stroke:none"
             d="M 0,0 C -0.026,0.984 -0.21,1.964 -0.549,2.923 0.073,2.194 0.529,1.51 0.844,0.832 1.282,-0.106 1.276,-0.887 0.825,-1.702 0.67,-1.98 0.511,-2.254 0.327,-2.513 -0.107,-3.125 -0.596,-3.705 -1.115,-4.315 -0.388,-2.948 -0.022,-1.552 0,0 m -4.202,-8.624 c -0.904,-1.844 -1.192,-3.731 -0.858,-5.608 0.112,-0.632 0.283,-1.254 0.517,-1.875 -0.584,0.725 -1.216,1.592 -1.591,2.58 -0.349,0.922 -0.311,1.734 0.121,2.551 0.19,0.361 0.405,0.702 0.64,1.032 0.421,0.59 0.891,1.139 1.361,1.69 -0.065,-0.122 -0.129,-0.246 -0.19,-0.37 m 30.687,-45.641 c 0.716,1.116 1.373,2.259 1.968,3.418 0.38,-0.456 0.783,-0.872 1.209,-1.252 1.042,-0.931 2.149,-1.653 3.318,-2.166 z m -0.793,24.488 c -0.212,-3.451 -0.58,-6.299 -1.155,-8.962 -0.936,-4.331 -2.468,-8.086 -4.684,-11.482 -0.869,-1.332 -1.875,-2.659 -3.069,-4.044 h -34.233 c -1.03,1.218 -1.965,2.491 -2.785,3.786 -1.696,2.689 -3.039,5.724 -3.989,9.021 -0.614,2.123 -1.087,4.397 -1.447,6.953 -0.205,1.447 -0.363,2.964 -0.485,4.64 -0.085,1.144 -0.156,2.291 -0.174,3.44 -0.003,0.141 -0.007,0.281 -0.012,0.422 h 52.19 c -0.018,-1.107 -0.069,-2.31 -0.157,-3.774 m 0.992,-32.272 c -0.108,-0.082 -0.219,-0.162 -0.331,-0.239 -1.257,-0.868 -2.739,-1.544 -4.666,-2.123 -2.52,-0.76 -5.058,-1.203 -7.205,-1.536 -0.294,-0.045 -0.586,-0.06 -0.883,-0.06 l -4.382,0.002 c -7.301,0 -14.609,0 -21.914,-0.007 -1.339,0.025 -2.407,0.071 -3.431,0.226 -2.068,0.314 -3.794,0.617 -5.502,1.081 -1.6,0.434 -2.852,0.909 -3.94,1.497 -0.609,0.327 -1.187,0.712 -1.747,1.164 z m 7.558,16.402 c -0.75,0.999 -1.221,2.248 -1.441,3.819 -0.073,0.523 -0.08,1.05 -0.091,1.515 0.068,3.402 1.133,6.273 3.258,8.776 1.04,1.228 2.186,2.063 3.503,2.552 0.651,0.241 1.253,0.361 1.826,0.361 0.639,0 1.24,-0.15 1.833,-0.45 0.787,-0.397 1.425,-1.037 1.954,-1.954 0.532,-0.923 0.866,-1.94 1.021,-3.111 0.323,-2.418 -0.047,-4.777 -1.129,-7.211 -0.715,-1.607 -1.695,-2.984 -2.913,-4.091 -1.118,-1.015 -2.233,-1.628 -3.411,-1.877 -1.808,-0.385 -3.286,0.18 -4.41,1.671 m 19.637,11.936 c -0.269,2.586 -1.049,4.931 -2.313,6.971 -1.18,1.903 -2.715,3.386 -4.565,4.405 -2.184,1.203 -4.561,1.666 -7.032,1.399 -1.642,-0.181 -3.258,-0.677 -4.804,-1.477 -0.519,-0.269 -1.026,-0.567 -1.52,-0.895 0.002,0.416 0.002,0.832 -0.001,1.246 -0.013,1.83 -1.288,3.374 -3.097,3.755 -0.395,0.083 -0.738,0.081 -1.115,0.08 H 12.127 c -0.088,0.369 -0.246,0.725 -0.47,1.05 -0.116,0.167 -0.245,0.323 -0.472,0.598 -0.609,0.748 -1.283,1.653 -1.673,2.684 -0.349,0.92 -0.311,1.732 0.122,2.551 0.282,0.531 0.613,1.032 0.99,1.491 0.422,0.52 0.853,1.031 1.283,1.545 l 0.654,0.782 c 1.08,1.296 1.791,2.386 2.303,3.535 0.57,1.28 0.83,2.591 0.77,3.896 -0.053,1.141 -0.342,2.299 -0.857,3.442 -0.583,1.294 -1.399,2.526 -2.568,3.88 L 12.07,7.387 C 11.81,7.692 11.515,8.037 11.137,8.357 10.291,9.076 9.161,9.3 8.121,8.958 7.089,8.619 6.322,7.783 6.07,6.72 5.812,5.638 6.112,4.581 6.915,3.744 7.462,3.171 7.917,2.626 8.306,2.075 8.768,1.422 9.067,0.856 9.243,0.291 9.424,-0.284 9.404,-0.808 9.178,-1.361 9.092,-1.576 8.983,-1.784 8.863,-1.986 8.428,-2.717 7.858,-3.392 7.253,-4.107 L 6.828,-4.61 C 6.013,-5.578 5.169,-6.579 4.472,-7.742 c -0.95,-1.581 -1.448,-3.234 -1.477,-4.9 -0.012,-0.563 0.06,-1.092 0.127,-1.492 0.201,-1.22 0.629,-2.423 1.271,-3.577 0.097,-0.174 0.198,-0.346 0.298,-0.516 H 3.932 c -0.085,0.351 -0.232,0.689 -0.441,1.002 -0.12,0.179 -0.256,0.348 -0.396,0.513 l -0.103,0.127 c -0.64,0.796 -1.283,1.67 -1.67,2.667 -0.358,0.931 -0.321,1.749 0.119,2.574 0.186,0.351 0.394,0.685 0.625,1.012 0.422,0.597 0.907,1.162 1.419,1.762 l 0.495,0.582 c 0.759,0.903 1.552,1.88 2.203,3.024 0.84,1.481 1.254,2.986 1.267,4.659 C 7.417,0.703 7.204,1.756 6.831,2.738 6.279,4.2 5.436,5.556 4.025,7.218 3.729,7.565 3.394,7.957 2.986,8.316 2.216,8.995 1.206,9.261 0.223,9.045 -0.744,8.833 -1.53,8.189 -1.936,7.276 -2.115,6.874 -2.21,6.465 -2.221,6.059 -2.577,6.56 -2.979,7.069 -3.434,7.596 L -3.553,7.734 C -3.849,8.08 -4.151,8.422 -4.496,8.719 -5.488,9.575 -6.823,9.737 -7.974,9.143 -9.102,8.562 -9.76,7.357 -9.651,6.075 -9.589,5.345 -9.272,4.677 -8.709,4.092 -8.189,3.548 -7.748,3.02 -7.363,2.48 -6.897,1.825 -6.595,1.257 -6.411,0.69 -6.204,0.052 -6.249,-0.539 -6.55,-1.167 -6.717,-1.512 -6.917,-1.848 -7.161,-2.192 -7.611,-2.823 -8.114,-3.41 -8.615,-3.998 l -0.337,-0.399 c -1.016,-1.202 -1.987,-2.402 -2.697,-3.848 -0.905,-1.846 -1.195,-3.732 -0.861,-5.608 0.207,-1.166 0.622,-2.324 1.235,-3.443 0.177,-0.322 0.358,-0.633 0.544,-0.931 l -19.26,0.001 c -0.171,0 -0.331,-0.001 -0.502,-0.007 -0.726,-0.037 -1.392,-0.265 -1.98,-0.673 -1.099,-0.757 -1.703,-1.912 -1.703,-3.25 -10e-4,-1.259 0.007,-2.519 0.051,-3.779 0.055,-1.544 0.128,-3.089 0.234,-4.632 0.134,-1.95 0.352,-3.929 0.647,-5.882 0.581,-3.823 1.44,-7.236 2.628,-10.432 0.846,-2.276 1.875,-4.462 3.06,-6.497 0.174,-0.3 0.351,-0.595 0.53,-0.886 l -8.977,-10e-4 c -0.181,0.004 -0.362,10e-4 -0.531,-0.013 -1.09,-0.079 -2.033,-0.555 -2.728,-1.376 -1.282,-1.515 -1.213,-3.694 0.166,-5.18 l 0.68,-0.726 c 0.484,-0.514 0.968,-1.027 1.432,-1.559 l 0.574,-0.66 c 0.838,-0.968 1.706,-1.967 2.65,-2.908 1.838,-1.828 3.996,-3.266 6.418,-4.274 1.582,-0.659 3.346,-1.204 5.391,-1.667 1.622,-0.365 3.352,-0.666 5.288,-0.921 l 0.47,-0.067 c 0.566,-0.083 1.15,-0.168 1.791,-0.168 l 28.511,-0.002 c 0.286,0 0.571,0.017 0.861,0.057 1.277,0.184 2.552,0.396 3.821,0.64 2.775,0.535 4.999,1.128 6.998,1.864 3.099,1.139 5.764,2.832 7.921,5.028 0.558,0.567 1.117,1.136 1.653,1.724 1.013,1.107 2.16,2.362 3.331,3.493 0.218,0.21 0.414,0.45 0.581,0.709 1.051,1.608 0.758,3.771 -0.685,5.032 -0.028,0.023 -0.056,0.047 -0.085,0.071 0.467,0.035 0.94,0.097 1.421,0.185 2.69,0.49 5.11,1.744 7.4,3.833 2.021,1.845 3.627,4.102 4.775,6.706 1.557,3.53 2.155,7.142 1.778,10.733" /></g></g></g></g></svg>
